<svg width="539.2625366210938px" height="260px" xmlns="http://www.w3.org/2000/svg" viewBox="-19.631268310546886 -55 539.2625366210938 260" style="background: rgba(0, 0, 0, 0);" preserveAspectRatio="xMidYMid"><defs><linearGradient id="editing-gradow-gradient" x1="0" x2="1" y1="0.5" y2="0.5" gradientUnits="objectBoundingBox"><stop offset="0" stop-color="#f0f"></stop><stop offset="1" stop-color="#0ff"></stop></linearGradient><filter id="editing-gradow-filter" x="-100%" y="-100%" width="300%" height="300%"><feFlood flood-color="#fffcd9" result="flood"></feFlood><feComposite operator="in" in2="SourceAlpha" in="flood" result="shadow"></feComposite><feOffset dx="-4" dy="-4" in="SourceGraphic" result="offset-1"></feOffset><feOffset dx="4" dy="4" in="shadow" result="offset-2"></feOffset><feMerge><feMergeNode in="offset-2"></feMergeNode><feMergeNode in="offset-1"></feMergeNode></feMerge></filter></defs><g filter="url(#editing-gradow-filter)"><g transform="translate(61.064979791641235, 145.68000411987305)"><path d="M50.46-80.56L50.46-80.56L50.46-80.56Q55.94-80.56 60.19-79.34L60.19-79.34L60.19-79.34Q60.34-79.95 60.65-81.62L60.65-81.62L61.41-86.34L61.41-86.34Q62.02-89.38 62.93-94.39L62.93-94.39L65.36-106.40L95.61-109.44L78.74-21.28L78.74-21.28Q78.58-20.37 78.58-18.85L78.58-18.85L78.58-16.42L78.58-16.42Q78.58-13.07 80.26-10.56L80.26-10.56L80.26-10.56Q81.93-8.06 84.66-8.06L84.66-8.06L84.66-8.06Q81.62-0.91 72.35 2.13L72.35 2.13L72.35 2.13Q69.16 3.04 64.68 3.04L64.68 3.04L64.68 3.04Q60.19 3.04 56.09 0.68L56.09 0.68L56.09 0.68Q51.98-1.67 50.77-5.62L50.77-5.62L50.77-5.62Q48.34-1.67 43.47 0.68L43.47 0.68L43.47 0.68Q38.61 3.04 31.54 3.04L31.54 3.04L31.54 3.04Q24.47 3.04 18.62 1.22L18.62 1.22L18.62 1.22Q12.77-0.61 9.12-4.56L9.12-4.56L9.12-4.56Q2.43-12.31 2.43-29.94L2.43-29.94L2.43-29.94Q2.43-52.74 15.81-66.58L15.81-66.58L15.81-66.58Q29.18-80.56 50.46-80.56ZM49.40-71.44L49.40-71.44L49.40-71.44Q43.78-71.44 40.74-65.36L40.74-65.36L40.74-65.36Q37.70-59.28 34.58-44.23L34.58-44.23L34.58-44.23Q31.46-29.18 31.46-15.66L31.46-15.66L31.46-15.66Q31.46-6.38 36.94-6.38L36.94-6.38L36.94-6.38Q41.80-6.38 45.22-11.25L45.22-11.25L45.22-11.25Q48.64-16.11 50.01-24.17L50.01-24.17L58.22-68.70L58.22-68.70Q55.02-71.44 49.40-71.44ZM134.06-8.36L134.06-8.36L134.06-8.36Q129.35 3.04 114.30 3.04L114.30 3.04L114.30 3.04Q106.55 3.04 101.69-2.28L101.69-2.28L101.69-2.28Q97.58-6.99 97.58-11.70L97.58-11.70L97.58-11.70Q97.58-24.02 103.21-48.03L103.21-48.03L108.83-77.52L139.69-80.56L130.42-32.53L130.42-32.53Q127.83-21.28 127.83-17.33L127.83-17.33L127.83-17.33Q127.83-8.66 134.06-8.36ZM111.57-98.65L111.57-98.65L111.57-98.65Q111.57-104.58 116.51-107.77L116.51-107.77L116.51-107.77Q121.45-110.96 128.59-110.96L128.59-110.96L128.59-110.96Q135.74-110.96 140.07-107.77L140.07-107.77L140.07-107.77Q144.40-104.58 144.40-98.65L144.40-98.65L144.40-98.65Q144.40-92.72 139.61-89.68L139.61-89.68L139.61-89.68Q134.82-86.64 127.68-86.64L127.68-86.64L127.68-86.64Q120.54-86.64 116.05-89.68L116.05-89.68L116.05-89.68Q111.57-92.72 111.57-98.65ZM217.82-10.41L217.82-10.41L217.82-10.41Q211.43-3.95 202.69-0.46L202.69-0.46L202.69-0.46Q193.95 3.04 185.29 3.04L185.29 3.04L185.29 3.04Q176.62 3.04 173.58 1.52L173.58 1.52L168.87 27.36L138.02 30.40L158.99-77.52L183.77-80.10L181.79-69.62L181.79-69.62Q188.18-80.41 201.40-80.41L201.40-80.41L201.40-80.41Q216.30-80.41 224.20-70.83L224.20-70.83L224.20-70.83Q231.19-62.17 231.19-48.94L231.19-48.94L231.19-48.94Q231.19-35.72 227.70-26.30L227.70-26.30L227.70-26.30Q224.20-16.87 217.82-10.41ZM183.46-53.05L175.41-8.51L175.41-8.51Q178.60-5.78 182.55-5.78L182.55-5.78L182.55-5.78Q186.50-5.78 188.78-7.30L188.78-7.30L188.78-7.30Q191.06-8.82 192.74-11.86L192.74-11.86L192.74-11.86Q197.30-20.06 200.94-44.99L200.94-44.99L200.94-44.99Q202.01-52.29 202.01-59.43L202.01-59.43L202.01-59.43Q202.01-66.58 200.41-68.86L200.41-68.86L200.41-68.86Q198.82-71.14 195.78-71.14L195.78-71.14L195.78-71.14Q186.50-71.14 183.46-53.05L183.46-53.05ZM242.74-15.20L242.74-15.20L242.74-15.20Q242.74-19.30 244.87-29.64L244.87-29.64L252.93-70.68L243.96-70.68L244.57-75.24L244.57-75.24Q262.81-80.71 280.44-94.09L280.44-94.09L287.74-94.09L284.09-77.52L295.94-77.52L294.58-70.68L282.87-70.68L275.12-29.64L275.12-29.64Q273.14-20.22 273.14-17.02L273.14-17.02L273.14-17.02Q273.14-9.73 279.53-8.21L279.53-8.21L279.53-8.21Q278.01-3.04 272.54 0L272.54 0L272.54 0Q267.06 3.04 259.31 3.04L259.31 3.04L259.31 3.04Q251.56 3.04 247.15-1.82L247.15-1.82L247.15-1.82Q242.74-6.69 242.74-15.20ZM327.71 3.04L327.71 3.04L327.71 3.04Q294.27 3.04 294.27-28.42L294.27-28.42L294.27-28.42Q294.27-50.77 306.58-65.21L306.58-65.21L306.58-65.21Q319.66-80.56 342.30-80.56L342.30-80.56L342.30-80.56Q358.72-80.56 367.08-72.96L367.08-72.96L367.08-72.96Q375.44-65.36 375.44-49.40L375.44-49.40L375.44-49.40Q375.44-25.08 362.37-10.94L362.37-10.94L362.37-10.94Q349.60 3.04 327.71 3.04ZM331.66-63.08L331.66-63.08L331.66-63.08Q329.84-58.98 328.40-52.82L328.40-52.82L328.40-52.82Q326.95-46.66 325.13-36.94L325.13-36.94L325.13-36.94Q323.30-27.21 323.30-15.20L323.30-15.20L323.30-15.20Q323.30-11.25 324.60-8.66L324.60-8.66L324.60-8.66Q325.89-6.08 329.38-6.08L329.38-6.08L329.38-6.08Q332.88-6.08 335.08-7.75L335.08-7.75L335.08-7.75Q337.29-9.42 338.96-13.38L338.96-13.38L338.96-13.38Q342-20.37 344.43-33.36L344.43-33.36L344.43-33.36Q346.86-46.36 347.09-51.98L347.09-51.98L347.09-51.98Q347.32-57.61 347.32-61.79L347.32-61.79L347.32-61.79Q347.32-65.97 346.10-68.70L346.10-68.70L346.10-68.70Q344.89-71.44 341.47-71.44L341.47-71.44L341.47-71.44Q338.05-71.44 335.77-69.31L335.77-69.31L335.77-69.31Q333.49-67.18 331.66-63.08Z" fill="url(#editing-gradow-gradient)"></path></g></g><style>text {
  font-size: 64px;
  font-family: Arial Black;
  dominant-baseline: central;
  text-anchor: middle;
}</style></svg>